<?xml version="1.0" encoding="utf-8"?><svg version="1.1" xmlns="http://www.w3.org/2000/svg" xmlns:xlink="http://www.w3.org/1999/xlink" x="0px" y="0px" viewBox="0 0 448 480" style="enable-background:new 0 0 448 480;" xml:space="preserve"><g><path fill="#0EBBB3" d="M419.8,262.2l-35.7-13.8l-18.2-18.2c-1.2-1.2-2.7-1.8-4.2-1.9v-14.5c8.6-9.1,14.7-20.7,17.1-33.7 c1.5,0.1,3.1-0.1,4.6-0.4c8.7-1.8,15-9.9,15-19.2v-4.8c0-5.4-2.2-10.4-5.8-13.9c5.8-31.4,1-57.1-13.8-74.2 c-14.4-16.6-37.5-24.5-66.9-22.9c-27.2,1.5-44.7,14-50.3,18.6c-3,0.4-8.2,1.4-13.5,4.6c-7.3,4.4-15.9,13.5-15.9,32.4 c0,16.5,2.6,30.2,4.5,38c-6.4,3.1-10.7,9.9-10.7,17.6v4.7c0,9.4,6.3,17.4,15,19.2c1.5,0.3,3.1,0.4,4.6,0.4 c2.5,13,8.6,24.6,17.1,33.7v14.5c-1.5,0.1-3,0.7-4.2,1.9l-18.2,18.2l-35.7,13.8c-3.1,1.2-6,2.7-8.8,4.6c-3,2-3.8,6.1-1.7,9.1 c1.3,1.9,3.3,2.9,5.4,2.9c1.3,0,2.5-0.4,3.7-1.1c1.9-1.3,4-2.4,6.1-3.2l33.1-12.8l25.3,37.9c3.1,4.7,8.2,7.7,13.8,8.3 c0.6,0.1,1.3,0.1,1.9,0.1c3.3,0,6.4-0.9,9.2-2.4l-5.4,123.1c-0.2,3.6,2.6,6.7,6.3,6.8c0.1,0,0.2,0,0.3,0c3.5,0,6.4-2.7,6.5-6.3 l5-114.3h13.6l5,114.3c0.2,3.5,3.1,6.3,6.5,6.3c0.1,0,0.2,0,0.3,0c3.6-0.2,6.4-3.2,6.3-6.8l-5.4-123.1c2.8,1.6,6,2.4,9.2,2.4 c0.6,0,1.2,0,1.9-0.1c5.6-0.6,10.7-3.6,13.8-8.3l25.3-37.9l33.1,12.8c4.6,1.8,8.6,4.6,11.8,8.2l-22.6,22.6 c-8.2,8.2-12.7,19.1-12.7,30.6V429c0,3.6,2.9,6.5,6.5,6.5s6.5-2.9,6.5-6.5v-93.1c0-8.1,3.1-15.7,8.8-21.4l19.9-19.9 c0.8,2.9,1.2,6,1,9.2l-5.1,124.9c-0.1,3.6,2.7,6.7,6.3,6.8c0.1,0,0.2,0,0.3,0c3.5,0,6.4-2.8,6.5-6.3l5.1-124.9 C448.2,285.8,437.1,268.9,419.8,262.2z M258.6,177.5c-1.2-6.3-7-10.9-13.3-10.4c-0.5,0-1,0-1.5-0.1c-2.6-0.5-4.6-3.3-4.6-6.4v-4.7 c0-3,2-5.8,4.6-6.2c2.2-0.4,4.3,0.4,5.6,2.1c1.2,1.6,2.8,2.7,4.6,3.2c2.7,0.8,5.6,0.3,7.9-1.3c4.1-2.9,7.7-6.4,10.7-10.5 c2.2-2.9,1.6-7-1.3-9.2c-2.9-2.2-7-1.6-9.2,1.3c-1.5,2-3.2,3.9-5.1,5.5c-2.1-1.8-4.5-3.1-7.1-3.8c-1.7-6.4-4.7-20.3-4.7-36.9 c0-10,3.1-17.1,9.2-20.9c4.8-3,9.8-3.1,9.8-3.1c1.7,0,3.3-0.7,4.5-1.8c0.2-0.2,16.3-15.1,43.8-16.6c25.2-1.4,44.7,5,56.3,18.4 c11.7,13.5,15.6,34.3,11.4,60.3c-1.8-0.1-3.7,0.1-5.6,0.4l-6.2-14.8c-1.3-3-4.5-4.6-7.7-3.8c-0.6,0.2-61.1,15.5-86.4-16.1 c-2.3-2.8-6.4-3.3-9.2-1c-2.8,2.3-3.3,6.4-1,9.2c25.9,32.2,77.3,25.2,94.4,21.8l4.8,11.4c2,4.9,7.3,7.6,12.4,6.4 c2.1-0.5,4.1-0.5,4.9-0.4c2.6,0.5,4.6,3.2,4.6,6.1v4.8c0,3.1-2,5.9-4.6,6.4c-0.5,0.1-1,0.1-1.5,0.1c-6.3-0.5-12.1,4.1-13.3,10.4 c-4.8,25.9-27.4,44.8-53.7,44.8C285.9,222.2,263.3,203.4,258.6,177.5z M287.6,293.2c-1.7,1.7-3.6,1.7-4.6,1.6 c-1-0.1-2.9-0.6-4.2-2.5l-25.5-38.2l10.2-10.2l39.1,34.2L287.6,293.2z M306.1,301.9l0.4-9l5.8-5.8l5.8,5.8l0.4,9H306.1z  M312.3,269.1L276,237.3v-12.5c10.6,6.7,23.1,10.6,36.3,10.6s25.8-3.8,36.3-10.6v12.5L312.3,269.1z M345.8,292.3 c-1.3,2-3.2,2.4-4.2,2.5c-1,0.1-2.9,0-4.6-1.6l-15.1-15.1l39.1-34.2l10.2,10.2L345.8,292.3z M208.2,296.5l-32-14l-17.5-17.5 c-1.2-1.2-2.7-1.8-4.2-1.9v-10.3c14.9-9.8,25.9-25.4,29.4-44c1.7,0.1,3.5-0.1,5.2-0.5c8.4-2,14.5-10,14.5-19.1v-4.8 c0-6.6-3.3-12.6-8.4-16.1c1.5-5.9,2.3-12,2.3-18.1c0-27.1-14.7-51-36.8-64.7c-0.2-22.6-19.6-41-43.3-41S74.3,62.9,74,85.5 c-22.1,13.7-36.8,37.6-36.8,64.7c0,6.1,0.8,12.2,2.3,18.1c-5.1,3.5-8.4,9.5-8.4,16.2v4.7c0,9.1,6.1,17.1,14.5,19.1 c1.7,0.4,3.4,0.6,5.2,0.5c3.5,18.6,14.4,34.2,29.4,44v10.3c-1.5,0.1-3,0.7-4.2,1.9l-17.5,17.5l-32,14C10.2,303.6-0.2,320.3,0.6,338 l3.9,91.2c0.1,3.5,3,6.3,6.5,6.3c0.1,0,0.2,0,0.3,0c3.6-0.2,6.4-3.2,6.3-6.8l-3.9-91.2c-0.2-5.9,1.3-11.6,4.2-16.5L35,341.6 c5.4,6.5,8.4,14.8,8.4,23.3V429c0,3.6,2.9,6.5,6.5,6.5s6.5-2.9,6.5-6.5v-64.1c0-11.5-4.1-22.8-11.5-31.6l-18.3-21.9 c1.6-1.1,3.2-2,5-2.8l27.9-12.2l19.7,32c1.9,3.2,5.2,5.3,8.8,5.9c0.7,0.1,1.3,0.2,2,0.2c3,0,5.9-1.1,8.2-3l12.5-10.6V429 c0,3.6,2.9,6.5,6.5,6.5c3.6,0,6.5-2.9,6.5-6.5V320.7l12.5,10.6c2.3,2,5.2,3,8.2,3c0.7,0,1.3-0.1,2-0.2c3.7-0.6,6.9-2.7,8.8-5.9 l19.7-32l27.9,12.2c1.8,0.8,3.4,1.7,5,2.8l-18.3,21.9c-7.4,8.9-11.5,20.1-11.5,31.6V429c0,3.6,2.9,6.5,6.5,6.5s6.5-2.9,6.5-6.5 v-64.1c0-8.5,3-16.7,8.4-23.3l17.2-20.6c2.9,4.9,4.4,10.6,4.2,16.5l-3.9,91.2c-0.2,3.6,2.7,6.7,6.3,6.8c0.1,0,0.2,0,0.3,0 c3.5,0,6.4-2.8,6.5-6.3l3.9-91.2C234.8,320.3,224.4,303.6,208.2,296.5z M117.3,57.6c13.9,0,25.7,8.9,29.2,20.9 c-9-3.4-18.9-5.3-29.2-5.3s-20.1,1.9-29.2,5.3C91.6,66.5,103.4,57.6,117.3,57.6z M63.6,206.2c-1.2-6.3-7-10.9-13.3-10.4 c-0.6,0-1.1,0-1.7-0.1c-2.5-0.6-4.4-3.3-4.4-6.3v-4.7c0-3,2-5.8,4.6-6.2c2.2-0.4,4.3,0.4,5.6,2.1c1.2,1.6,2.8,2.7,4.6,3.2 c2.7,0.8,5.6,0.3,7.9-1.3c4-2.8,7.6-6.3,10.6-10.3c2.2-2.9,1.6-7-1.3-9.2c-2.9-2.2-7-1.6-9.2,1.3c-1.5,2-3.2,3.8-5,5.4 c-2.8-2.4-6.2-3.9-9.9-4.4c-1.3-4.9-1.9-10-1.9-15c0-35.2,30-63.9,67-63.9c36.9,0,67,28.7,67,63.9c0,5.1-0.6,10.1-1.9,15 c-1.7,0.1-3.5,0.4-5.1,0.8l-4.9-4c-2.5-2-5.6-3.1-8.7-2.9c-9.6,0.6-58.9,1.9-84.2-28.4c-2.3-2.8-6.4-3.1-9.2-0.8s-3.1,6.4-0.8,9.2 c12.5,14.9,30.8,25,54.4,30c18.1,3.8,34.1,3.4,40.4,3.1l7.7,6.3c2.1,1.7,5.1,2,7.4,0.6c1.1-0.6,4.8-1.2,6.5-0.9 c2.6,0.5,4.6,3.2,4.6,6.1v4.8c0,3-1.9,5.8-4.4,6.3c-0.6,0.1-1.2,0.2-1.7,0.1c-6.3-0.5-12.1,4.1-13.3,10.4 c-4.8,25.9-27.4,44.8-53.7,44.8C91,250.9,68.4,232.1,63.6,206.2z M90.2,321l-19.7-32L80.6,279l27.1,27.1L90.2,321z M117.3,297.2 l-24.1-24.1v-13.5c7.5,2.9,15.6,4.4,24.1,4.4s16.6-1.6,24.1-4.4v13.5L117.3,297.2z M144.5,321L127,306.1l27.1-27.1l10.1,10.1 L144.5,321z"/><path fill="#496A9A" d="M275.5,332.3H251c-3.6,0-6.5,2.9-6.5,6.5c0,3.6,2.9,6.5,6.5,6.5h24.5c3.6,0,6.5-2.9,6.5-6.5 C282.1,335.2,279.2,332.3,275.5,332.3z M92.8,361.2H74.4c-3.6,0-6.5,2.9-6.5,6.5s2.9,6.5,6.5,6.5h18.4c3.6,0,6.5-2.9,6.5-6.5 C99.4,364.1,96.4,361.2,92.8,361.2z"/></g></svg>