<?xml version="1.0" encoding="utf-8"?>
<!-- Generator: Adobe Illustrator 21.0.0, SVG Export Plug-In . SVG Version: 6.00 Build 0)  -->
<svg version="1.1" id="Слой_2" xmlns="http://www.w3.org/2000/svg" xmlns:xlink="http://www.w3.org/1999/xlink" x="0px" y="0px"
	 viewBox="0 0 480 480" style="enable-background:new 0 0 480 480;" xml:space="preserve">
<style type="text/css">
	.st0{fill:#496A9A;}
	.st1{fill:#0EBBB3;}
</style>
<path class="st0" d="M144,168v-24h24c4.4,0,8-3.6,8-8v-32c0-4.4-3.6-8-8-8h-24V72c0-4.4-3.6-8-8-8h-32c-4.4,0-8,3.6-8,8v24H72
	c-4.4,0-8,3.6-8,8v32c0,4.4,3.6,8,8,8h24v24c0,4.4,3.6,8,8,8h32C140.4,176,144,172.4,144,168z M128,136v24h-16v-24c0-4.4-3.6-8-8-8
	H80v-16h24c4.4,0,8-3.6,8-8V80h16v24c0,4.4,3.6,8,8,8h24v16h-24C131.6,128,128,131.6,128,136z M208,120c0-48.6-39.4-88-88-88
	s-88,39.4-88,88s39.4,88,88,88C168.6,207.9,208,168.6,208,120z M48,120c0-39.8,32.2-72,72-72s72,32.2,72,72s-32.2,72-72,72
	C80.3,192,48.1,159.7,48,120z"/>
<path class="st1" d="M296,440h16v16h-16V440z M154.9,281.8l101.3-101.3c15.4-15.3,39.4-17.4,57.2-5.1c20.5,14.1,25.7,42.1,11.6,62.6
	l-24.7,35.7l20.7-16.1c50-38.6,79.2-98.3,79-161.5c0.1-16.8,10.7-31.9,26.5-37.5c-19.6-27-51-42.8-84.4-42.5
	C285.2,16.5,239.5,63.1,240,120c0,4.4-3.6,8-8,8s-8-3.6-8-8c0-1.7,0-3.4-0.1-5C221.1,57.6,172.3,13.3,115,16.1
	c-56.3,3.5-99.9,50.7-99,107.1c0.1,50.9,24,98.8,64.4,129.7l59.8,45.3C144.8,292.5,149.7,287,154.9,281.8z M464,96
	c0-13.3-10.7-24-24-24s-24,10.7-24,24c0.2,68.1-31.3,132.5-85.2,174.1l-61.9,48.1c-2.8,2.1-6.6,2.2-9.4,0.3c-3.6-2.5-4.6-7.5-2-11.1
	l54.4-78.6c8-11.5,6.6-27.1-3.3-37c-11.5-11-29.5-11-41,0L166.2,293.1c-32.8,32.7-52,76.6-53.8,122.9h204.4l16.1-15.3l0,0
	C416.4,321.3,463.8,211.2,464,96z M101.7,289.1c-23.1,38.4-36,82.1-37.4,126.9h31.9c1.4-37.5,13.3-73.9,34.5-104.9L101.7,289.1z
	 M343.9,412.4C430.6,329.9,479.8,215.6,480,96c-0.1-20.3-15.3-37.3-35.4-39.5C409.6,0.6,335.9-16.4,280,18.6
	c-21.8,13.7-38.7,34-48,58.1c-18.8-48.2-66.2-79-117.8-76.5C49.4,4-1,58.2,0,123.2c0.1,55.9,26.3,108.6,70.8,142.5l18.1,13.7
	C63.7,320.6,49.7,367.7,48.3,416H48c-0.7,0-1.3,0.1-1.9,0.1H340L343.9,412.4z M80.4,252.9C40,222,16.2,174.1,16,123.2
	C15,66.8,58.6,19.6,115,16.1c57.4-2.8,106.1,41.5,108.9,98.8c0.1,1.7,0.1,3.4,0.1,5c0,4.4,3.6,8,8,8s8-3.6,8-8
	c-0.5-56.9,45.2-103.5,102.2-104c33.4-0.3,64.8,15.5,84.4,42.5C410.7,64.1,400.1,79.1,400,96c0.2,63.2-29,122.9-79,161.5l-20.7,16.1
	l24.7-35.7c14.1-20.5,8.9-48.5-11.6-62.6c-17.8-12.3-41.9-10.1-57.2,5.1L154.9,281.8c-5.2,5.2-10.1,10.7-14.7,16.5L80.4,252.9z
	 M64.3,416c1.4-44.8,14.3-88.5,37.4-126.9l29,22c-21.1,31-33.1,67.4-34.5,104.9H64.3z M316.8,416H112.4c1.8-46.3,21-90.2,53.8-122.9
	l101.3-101.3c11.5-11,29.5-11,41,0c9.9,9.9,11.3,25.5,3.3,37l-54.4,78.6c-2.5,3.6-1.6,8.6,2,11.1c2.9,2,6.7,1.9,9.4-0.3l61.9-48.1
	c53.9-41.7,85.4-106,85.2-174.1c0-13.3,10.7-24,24-24s24,10.7,24,24c-0.2,115.2-47.6,225.3-131.1,304.7l0,0L316.8,416z M32,432v32
	c0,8.8,7.2,16,16,16h280c8.8,0,16-7.2,16-16v-32c0-5.3-2.6-10.2-6.9-13.2l2.9-2.7H46.1C38.2,417.1,32,423.8,32,432z M112,432h216v32
	H112V432z M48,432h48v32H48V432z M80.4,252.9C40,222,16.2,174.1,16,123.2C15,66.8,58.6,19.6,115,16.1
	c57.4-2.8,106.1,41.5,108.9,98.8c0.1,1.7,0.1,3.4,0.1,5c0,4.4,3.6,8,8,8s8-3.6,8-8c-0.5-56.9,45.2-103.5,102.2-104
	c33.4-0.3,64.8,15.5,84.4,42.5C410.7,64.1,400.1,79.1,400,96c0.2,63.2-29,122.9-79,161.5l-20.7,16.1l24.7-35.7
	c14.1-20.5,8.9-48.5-11.6-62.6c-17.8-12.3-41.9-10.1-57.2,5.1L154.9,281.8c-5.2,5.2-10.1,10.7-14.7,16.5L80.4,252.9z M64.3,416
	c1.4-44.8,14.3-88.5,37.4-126.9l29,22c-21.1,31-33.1,67.4-34.5,104.9H64.3z M316.8,416H112.4c1.8-46.3,21-90.2,53.8-122.9
	l101.3-101.3c11.5-11,29.5-11,41,0c9.9,9.9,11.3,25.5,3.3,37l-54.4,78.6c-2.5,3.6-1.6,8.6,2,11.1c2.9,2,6.7,1.9,9.4-0.3l61.9-48.1
	c53.9-41.7,85.4-106,85.2-174.1c0-13.3,10.7-24,24-24s24,10.7,24,24c-0.2,115.2-47.6,225.3-131.1,304.7l0,0L316.8,416z"/>
</svg>
