<?xml version="1.0" encoding="utf-8"?><svg version="1.1" xmlns="http://www.w3.org/2000/svg" xmlns:xlink="http://www.w3.org/1999/xlink" x="0px" y="0px" viewBox="0 0 448 480" style="enable-background:new 0 0 448 480;" xml:space="preserve"><path fill="#496A9A" d="M168,321c53.6,0,97-43.4,97-97s-43.4-97-97-97s-97,43.4-97,97C71.1,277.6,114.5,321,168,321z M168,142 c45.3,0,82.1,36.7,82.1,82.1s-36.7,82.1-82.1,82.1S85.9,269.4,85.9,224C86,178.7,122.7,142,168,142z M123.7,248.7h19.7v19.7 c0,4.4,3.6,8,8,8h33.2c4.4,0,8-3.6,8-8v-19.7h19.7c4.4,0,8-3.6,8-8v-33.2c0-4.4-3.6-8-8-8h-19.7v-19.7c0-4.4-3.6-8-8-8h-33.2 c-4.4,0-8,3.6-8,8v19.7h-19.7c-4.4,0-8,3.6-8,8v33.2C115.6,245.1,119.2,248.7,123.7,248.7z M184.6,215.5h19.7v17.2h-19.7 c-4.4,0-8,3.6-8,8v19.7h-17.2v-19.7c0-4.4-3.6-8-8-8h-19.7v-17.2h19.7c4.4,0,8-3.6,8-8v-19.7h17.2v19.7 C176.6,211.9,180.2,215.5,184.6,215.5z M250,368v16H86v-16H250z"/><path fill="#0EBBB3" d="M328,32H207.2C202.8,10.4,181.7-3.6,160,0.8C144.3,4,132,16.3,128.8,32H8c-4.4,0-8,3.6-8,8v432c0,4.4,3.6,8,8,8 h320c4.4,0,8-3.6,8-8V40C336,35.6,332.4,32,328,32z M88,48h48c4.4,0,8-3.6,8-8c0-13.3,10.7-24,24-24s24,10.7,24,24c0,4.4,3.6,8,8,8 h48v24H88V48z M80,88h176c4.4,0,8-3.6,8-8h2.2H283V417H53.3V80h15.4H72h0C72,84.5,75.6,88,80,88z M320,464H16V48h56v16h0h-3.2H45.3 c-4.4,0-8,3.6-8,8V425c0,4.4,3.6,8,8,8H291c4.4,0,8-3.6,8-8V72c0-4.4-3.6-8-8-8h-24.8H264v-4.2V48h56V464z M440,72h-16v-8h-16v8h-16 c-4.4,0-8,3.6-8,8v8h-16c-4.4,0-8,3.6-8,8v168h16V104h8V292V408c0,1.1,0.2,2.2,0.6,3.2l23.4,54.5V480h16v-14.4l23.4-54.5 c0.4-1,0.6-2,0.6-3.1V80C448,75.6,444.4,72,440,72z M432,406.4l-16,37.3l-16-37.3V296h32V406.4z M432,280h-32v-16h32V280z M432,248 h-32V88h32V248z"/></svg>